<svg width="169" height="50" viewBox="0 0 169 50" fill="none" xmlns="http://www.w3.org/2000/svg">
<path d="M145 0C153.401 0 157.601 7.78632e-06 160.81 1.63477C163.632 3.07287 165.927 5.368 167.365 8.19043C169 11.3991 169 15.5995 169 24V26C169 34.4005 169 38.6009 167.365 41.8096C165.927 44.632 163.632 46.9271 160.81 48.3652C157.601 50 153.401 50 145 50H24C15.5995 50 11.3991 50 8.19043 48.3652C5.368 46.9271 3.07287 44.632 1.63477 41.8096C7.78632e-06 38.6009 0 34.4005 0 26V24C0 15.5995 7.84819e-06 11.3991 1.63477 8.19043C3.07287 5.368 5.368 3.07287 8.19043 1.63477C11.3991 7.80662e-06 15.5995 0 24 0H145ZM42.2324 15.1836C36.6884 15.1836 33.0166 19.0723 33.0166 24.9043C33.0167 30.8561 36.7845 34.8164 42.2324 34.8164C45.8324 34.8164 48.2804 32.9915 49.6484 30.5195L46.1201 28.1201C45.0882 29.872 43.8403 30.6396 42.2324 30.6396C39.2325 30.6396 37.6007 28.4081 37.6006 24.9043C37.6006 21.5203 39.1604 19.3604 42.2324 19.3604C43.7923 19.3604 45.0882 20.128 46.1201 21.8799L49.6484 19.4805C48.2804 17.0085 45.8324 15.1836 42.2324 15.1836ZM81.4268 15.1836C77.3469 15.1836 74.1311 17.6078 74.1309 21.0156C74.1309 25.1434 77.9944 26.1277 80.6104 26.8477C83.4663 27.6156 84.1386 28.096 84.1387 29.1279C84.1387 30.1359 83.0109 30.7841 81.1631 30.7842C79.4351 30.7842 77.9707 29.9919 77.0107 28.0479L73.5312 30.376C74.7313 32.9919 77.3708 34.8164 81.1387 34.8164C85.5547 34.8164 88.6992 32.4877 88.6992 28.8877C88.699 24.7361 84.8591 23.7755 82.2432 23.1035C79.3875 22.3356 78.6906 21.9041 78.6904 20.9443C78.6904 19.9363 79.8909 19.2158 81.3789 19.2158C82.9629 19.2159 84.3788 20.0803 85.2188 21.6162L88.5547 19.3838C87.5226 17.1519 85.1466 15.1836 81.4268 15.1836ZM91.6475 16.9121V20.9199H89.416V24.7598H91.6475V29.752C91.6475 33.0158 93.3996 34.8163 96.5674 34.8164C97.5994 34.8164 98.392 34.6962 99.376 34.4082V30.3281C98.7281 30.5201 98.152 30.5918 97.624 30.5918C96.5681 30.5918 95.9678 30.04 95.9678 29.0801V24.7598H99.6641V20.9199H95.9678V16.9121H91.6475ZM101.394 19.96V29.5596C101.394 32.9195 103.17 34.8164 105.978 34.8164C107.825 34.8164 109.097 33.976 109.865 32.6562H110.01V34.4805H114.33V19.96H110.01V28.3115C110.01 29.8475 109.098 30.7842 107.682 30.7842C106.482 30.7842 105.714 29.9198 105.714 28.5518V19.96H101.394ZM126.005 15.5195V21.6396H125.86C125.068 20.3919 123.844 19.624 122.188 19.624C118.637 19.6242 116.404 22.5041 116.404 27.0879C116.404 31.8399 118.733 34.8164 122.429 34.8164C123.893 34.8164 125.092 34.0478 125.86 32.7998H126.005V34.4805H130.325V15.5195H126.005ZM146.922 19.624C142.578 19.624 139.865 22.552 139.865 27.208C139.865 31.888 142.578 34.8164 146.922 34.8164C151.266 34.8163 153.978 31.8879 153.978 27.208C153.978 22.5521 151.266 19.6241 146.922 19.624ZM21.3984 15.5195L14.2461 34.4805H18.9736L20.3418 30.5684H27.0137L28.3818 34.4805H33.1104L25.958 15.5195H21.3984ZM51.8057 15.5195V34.4805H64.9814V30.4482H56.2695V26.8965H64.2373V22.8643H56.2695V19.5518H64.6934V15.5195H51.8057ZM133.228 20.9199V34.4805H137.548V20.9199H133.228ZM123.413 23.6562C125.069 23.6565 126.101 25.0246 126.101 27.2324C126.1 29.4161 125.093 30.7841 123.509 30.7842C121.853 30.7842 120.82 29.4162 120.82 27.2324C120.82 25.0244 121.829 23.6562 123.413 23.6562ZM146.922 23.7041C148.554 23.7042 149.562 25.0481 149.562 27.208C149.562 29.3679 148.554 30.7362 146.922 30.7363C145.29 30.7363 144.281 29.368 144.281 27.208C144.281 25.048 145.29 23.7041 146.922 23.7041ZM23.75 21.3281L25.5264 26.3916H21.8301L23.6064 21.3281H23.75ZM135.364 14.4639C133.828 14.4639 132.868 15.4484 132.868 16.9844C132.868 18.5202 133.828 19.5039 135.364 19.5039C136.924 19.5038 137.908 18.5201 137.908 16.9844C137.908 15.4485 136.924 14.464 135.364 14.4639Z" fill="black"/>
</svg>
