<svg width="169" height="50" viewBox="0 0 169 50" fill="none" xmlns="http://www.w3.org/2000/svg">
<path d="M145 0C153.401 0 157.601 7.78632e-06 160.81 1.63477C163.632 3.07287 165.927 5.368 167.365 8.19043C169 11.3991 169 15.5995 169 24V26C169 34.4005 169 38.6009 167.365 41.8096C165.927 44.632 163.632 46.9271 160.81 48.3652C157.601 50 153.401 50 145 50H24C15.5995 50 11.3991 50 8.19043 48.3652C5.368 46.9271 3.07287 44.632 1.63477 41.8096C7.78632e-06 38.6009 0 34.4005 0 26V24C0 15.5995 7.84819e-06 11.3991 1.63477 8.19043C3.07287 5.368 5.368 3.07287 8.19043 1.63477C11.3991 7.80662e-06 15.5995 0 24 0H145ZM77.0283 19.624C75.5164 19.624 74.1238 20.3917 73.2598 21.6396H73.1162V19.96H68.7959V39.7598H73.1162V32.7998H73.2598C74.1238 34.0478 75.4445 34.8164 76.9805 34.8164C80.5082 34.8161 82.7158 31.8397 82.7158 27.0879C82.7158 22.5041 80.5321 19.6242 77.0283 19.624ZM45.0176 19.624C40.8656 19.624 38.0332 22.624 38.0332 27.376C38.0332 31.9359 40.9376 34.8164 45.1855 34.8164C48.3775 34.8164 50.2736 33.16 51.0176 31.4561L47.7773 29.2959C47.1773 30.5439 46.3614 31.1436 45.2334 31.1436C43.6256 31.1435 42.8099 30.256 42.5459 28.7441H51.2812C51.4972 27.9762 51.6172 27.1361 51.6172 26.2002C51.6172 22.1922 48.9536 19.624 45.0176 19.624ZM60.1348 19.624C55.9828 19.624 53.1504 22.624 53.1504 27.376C53.1504 31.9359 56.0548 34.8164 60.3027 34.8164C63.4947 34.8164 65.3907 33.16 66.1348 31.4561L62.8945 29.2959C62.2945 30.5439 61.4786 31.1436 60.3506 31.1436C58.7428 31.1435 57.9271 30.256 57.6631 28.7441H66.3984C66.6144 27.9762 66.7344 27.1361 66.7344 26.2002C66.7344 22.1922 64.0708 19.624 60.1348 19.624ZM106.004 19.624C101.66 19.624 98.9473 22.552 98.9473 27.208C98.9473 31.888 101.66 34.8164 106.004 34.8164C110.348 34.8163 113.06 31.8879 113.06 27.208C113.06 22.5521 110.348 19.6241 106.004 19.624ZM121.756 19.624C117.436 19.6241 114.604 22.5524 114.604 27.2324C114.604 31.8881 117.436 34.8164 121.756 34.8164C124.468 34.8164 126.676 33.4002 127.636 31.1924L124.204 28.8643C123.58 30.0881 122.788 30.7362 121.66 30.7363C119.956 30.7363 119.02 29.3922 119.02 27.2324C119.02 25.0724 119.956 23.7041 121.66 23.7041C122.788 23.7042 123.58 24.3523 124.204 25.5762L127.636 23.248C126.676 21.0401 124.468 19.624 121.756 19.624ZM134.885 19.624C132.293 19.6242 130.349 20.6564 129.005 22.6963L131.909 24.6885C132.557 23.7045 133.397 23.2002 134.453 23.2002C135.869 23.2002 136.757 23.9203 136.757 25.0723V25.3359H135.029C130.853 25.3359 128.453 27.6158 128.453 30.6396C128.453 33.3516 130.59 34.8164 133.014 34.8164C134.693 34.8163 136.013 34.1919 136.613 32.8721H136.757V34.4805H141.077V25.168C141.077 21.856 138.533 19.624 134.885 19.624ZM19.5361 15.5195V34.4805H26.5918C33.0718 34.4805 36.4082 30.568 36.4082 25C36.4082 19.432 33.216 15.5195 27 15.5195H19.5361ZM81.3281 15.5195L88.5518 34.4805H93.1123L100.336 15.5195H95.5361L90.9043 28.4082H90.7598L86.1279 15.5195H81.3281ZM143.727 15.5195V31C143.727 33.232 145.071 34.4805 147.495 34.4805H149.606V30.4004H148.887C148.335 30.4004 148.047 30.1115 148.047 29.5596V15.5195H143.727ZM136.757 28.8398V29.6318C136.757 30.6638 135.797 31.3115 134.405 31.3115C133.349 31.3115 132.869 30.9756 132.869 30.3516C132.869 29.3918 133.83 28.8398 135.941 28.8398H136.757ZM75.708 23.6562C77.292 23.6563 78.2998 25.0244 78.2998 27.2324C78.2997 29.416 77.268 30.784 75.6123 30.7842C74.0284 30.7842 73.0197 29.4162 73.0195 27.2324C73.0195 25.0244 74.052 23.6562 75.708 23.6562ZM106.004 23.7041C107.636 23.7042 108.644 25.0481 108.644 27.208C108.644 29.3679 107.636 30.7362 106.004 30.7363C104.372 30.7363 103.363 29.368 103.363 27.208C103.363 25.048 104.372 23.7041 106.004 23.7041ZM26.8076 19.6963C30.3356 19.6963 31.8477 21.832 31.8477 25C31.8477 28.1679 30.2401 30.3036 26.6162 30.3037H24V19.6963H26.8076ZM45.0176 23.1279C46.4096 23.1279 47.2256 24.0402 47.2256 25.4082H42.6416C42.9776 23.9922 43.7216 23.128 45.0176 23.1279ZM60.1348 23.1279C61.5268 23.1279 62.3428 24.0402 62.3428 25.4082H57.7588C58.0948 23.9922 58.8388 23.128 60.1348 23.1279Z" fill="black"/>
</svg>
