<svg width="169" height="50" viewBox="0 0 169 50" fill="none" xmlns="http://www.w3.org/2000/svg">
<path d="M145 0C153.401 0 157.601 7.78632e-06 160.81 1.63477C163.632 3.07287 165.927 5.368 167.365 8.19043C169 11.3991 169 15.5995 169 24V26C169 34.4005 169 38.6009 167.365 41.8096C165.927 44.632 163.632 46.9271 160.81 48.3652C157.601 50 153.401 50 145 50H24C15.5995 50 11.3991 50 8.19043 48.3652C5.368 46.9271 3.07287 44.632 1.63477 41.8096C7.78632e-06 38.6009 0 34.4005 0 26V24C0 15.5995 7.84819e-06 11.3991 1.63477 8.19043C3.07287 5.368 5.368 3.07287 8.19043 1.63477C11.3991 7.80662e-06 15.5995 0 24 0H145ZM112.348 19.624C108.796 19.6241 106.564 22.3598 106.563 26.7275C106.563 31.2635 108.892 34.0957 112.588 34.0957C114.004 34.0957 115.3 33.3519 116.02 32.0801H116.164V33.6885C116.164 35.3682 115.132 36.4003 113.38 36.4004C111.94 36.4004 111.004 35.7518 110.284 34.5039L107.14 36.6641C107.884 38.4641 109.996 40.0957 113.5 40.0957C117.988 40.0956 120.483 37.264 120.483 32.9922V19.96H116.164V21.6396H116.02C115.204 20.3439 113.884 19.624 112.348 19.624ZM75.126 15.1836C71.0461 15.1836 67.8303 17.6078 67.8301 21.0156C67.8301 25.1434 71.6936 26.1277 74.3096 26.8477C77.1655 27.6156 77.8379 28.096 77.8379 29.1279C77.8379 30.1359 76.7101 30.7841 74.8623 30.7842C73.1343 30.7842 71.67 29.9919 70.71 28.0479L67.2305 30.376C68.4305 32.9919 71.07 34.8164 74.8379 34.8164C79.2539 34.8164 82.3984 32.4877 82.3984 28.8877C82.3982 24.7361 78.5583 23.7755 75.9424 23.1035C73.0867 22.3356 72.3898 21.9041 72.3896 20.9443C72.3896 19.9363 73.5901 19.2158 75.0781 19.2158C76.6621 19.2159 78.078 20.0803 78.918 21.6162L82.2539 19.3838C81.2219 17.1519 78.8459 15.1836 75.126 15.1836ZM129.533 19.624C125.381 19.624 122.549 22.624 122.549 27.376C122.549 31.9359 125.453 34.8164 129.701 34.8164C132.893 34.8164 134.789 33.16 135.533 31.4561L132.293 29.2959C131.693 30.5439 130.877 31.1436 129.749 31.1436C128.141 31.1435 127.326 30.256 127.062 28.7441H135.797C136.013 27.9762 136.133 27.1361 136.133 26.2002C136.133 22.1922 133.469 19.624 129.533 19.624ZM20.9658 15.5195V34.4805H28.0215C34.5015 34.4805 37.8379 30.568 37.8379 25C37.8379 19.432 34.6457 15.5195 28.4297 15.5195H20.9658ZM40.2549 20.9199V34.4805H44.5752V20.9199H40.2549ZM53.3008 14.9443C50.085 14.9444 48.3331 16.816 48.333 20.1758V20.9199H46.3652V24.7598H48.333V34.4805H52.6533V24.7598H56.085V20.9199H52.6533V20.248C52.6533 19.216 53.3733 18.7842 54.2373 18.7842C54.9091 18.7842 55.4609 18.9762 56.1807 19.2881V15.376C55.4367 15.0881 54.4046 14.9443 53.3008 14.9443ZM63.6133 14.9443C60.3975 14.9444 58.6456 16.816 58.6455 20.1758V20.9199H56.6777V24.7598H58.6455V34.4805H62.9658V24.7598H66.3975V20.9199H62.9658V20.248C62.9658 19.216 63.6858 18.7842 64.5498 18.7842C65.2216 18.7842 65.7734 18.9762 66.4932 19.2881V15.376C65.7492 15.0881 64.7171 14.9443 63.6133 14.9443ZM84.4346 20.9199V34.4805H88.7549V20.9199H84.4346ZM100.024 19.624C98.1766 19.6241 96.857 20.4882 96.041 21.832H95.9209V19.96H91.6006V34.4805H95.9209V26.248C95.9209 24.6881 96.8326 23.7276 98.2725 23.7275C99.4965 23.7275 100.217 24.5924 100.217 25.9844V34.4805H104.537V24.9756C104.537 21.5438 102.88 19.624 100.024 19.624ZM147.986 19.624C145.226 19.6241 143.57 20.7282 142.658 22.5762H142.515V19.96H138.194V34.4805H142.515V27.5439C142.515 25.024 143.955 23.7998 147.891 23.7998H148.131V19.624H147.986ZM28.2373 19.6963C31.7653 19.6963 33.2773 21.832 33.2773 25C33.2773 28.1679 31.6698 30.3036 28.0459 30.3037H25.4297V19.6963H28.2373ZM113.571 23.6562C115.227 23.6562 116.26 24.9041 116.26 26.8721C116.26 28.8399 115.252 30.0643 113.668 30.0645C112.012 30.0645 110.98 28.84 110.979 26.8721C110.979 24.9043 111.988 23.6565 113.571 23.6562ZM129.533 23.1279C130.925 23.1279 131.741 24.0402 131.741 25.4082H127.157C127.493 23.9922 128.237 23.128 129.533 23.1279ZM42.3916 14.4639C40.8556 14.4639 39.8955 15.4484 39.8955 16.9844C39.8957 18.5202 40.8557 19.5039 42.3916 19.5039C43.9513 19.5038 44.9354 18.5201 44.9355 16.9844C44.9355 15.4485 43.9514 14.464 42.3916 14.4639ZM86.5713 14.4639C85.0353 14.4639 84.0752 15.4484 84.0752 16.9844C84.0754 18.5202 85.0354 19.5039 86.5713 19.5039C88.131 19.5038 89.1151 18.5201 89.1152 16.9844C89.1152 15.4485 88.1311 14.464 86.5713 14.4639Z" fill="black"/>
</svg>
