<svg width="169" height="50" viewBox="0 0 169 50" fill="none" xmlns="http://www.w3.org/2000/svg">
<path d="M145 0C153.401 0 157.601 7.78632e-06 160.81 1.63477C163.632 3.07287 165.927 5.368 167.365 8.19043C169 11.3991 169 15.5995 169 24V26C169 34.4005 169 38.6009 167.365 41.8096C165.927 44.632 163.632 46.9271 160.81 48.3652C157.601 50 153.401 50 145 50H24C15.5995 50 11.3991 50 8.19043 48.3652C5.368 46.9271 3.07287 44.632 1.63477 41.8096C7.78632e-06 38.6009 0 34.4005 0 26V24C0 15.5995 7.84819e-06 11.3991 1.63477 8.19043C3.07287 5.368 5.368 3.07287 8.19043 1.63477C11.3991 7.80662e-06 15.5995 0 24 0H145ZM50.9043 13.5039C50.2083 16.6239 49.5359 18.4239 48.5039 20.4639V17.1758H49.5361V14.1758H37.416V17.1758H45.3604V22.9355H48.5039V21.6641L50.6885 23.4404C51.0485 22.8644 51.4081 22.1917 51.7441 21.4717C51.7441 21.9997 51.7197 22.6244 51.7197 22.9844C51.6717 26.9922 50.8318 29.8244 48.5039 32.1523V26.4639H49.9922V23.4404H37.1758V26.4639H45.3604V31.3359C45.3604 32.3199 45.2637 32.8721 44.3037 32.8721H42.2158L42.792 35.7764H45.0957C47.2077 35.7764 48.0958 35.3196 48.3838 33.9756L49.7041 36.0156C51.504 34.2397 52.7762 32.3918 53.6162 30.2559C54.4562 32.3678 55.6556 34.3121 57.1436 35.8721L59.0645 32.8477C56.4485 30.4957 55.0557 27.7356 54.8877 23.2236V22.2158L57.168 23.1523L58.8965 19.4082V16.0957H53.6396C53.8796 15.2798 54.048 14.5598 54.168 14.0078L50.9043 13.5039ZM98.9043 13.5039C98.2083 16.6239 97.5359 18.4239 96.5039 20.4639V17.1758H97.5361V14.1758H85.416V17.1758H93.3604V22.9355H96.5039V21.6641L98.6885 23.4404C99.0485 22.8644 99.4081 22.1917 99.7441 21.4717C99.7441 21.9997 99.7197 22.6244 99.7197 22.9844C99.6717 26.9922 98.8318 29.8244 96.5039 32.1523V26.4639H97.9922V23.4404H85.1758V26.4639H93.3604V31.3359C93.3604 32.3199 93.2637 32.8721 92.3037 32.8721H90.2158L90.792 35.7764H93.0957C95.2077 35.7764 96.0958 35.3196 96.3838 33.9756L97.7041 36.0156C99.504 34.2397 100.776 32.3918 101.616 30.2559C102.456 32.3678 103.656 34.3121 105.144 35.8721L107.064 32.8477C104.448 30.4957 103.056 27.7356 102.888 23.2236V22.2158L105.168 23.1523L106.896 19.4082V16.0957H101.64C101.88 15.2798 102.048 14.5598 102.168 14.0078L98.9043 13.5039ZM70.3682 14.584V23.4639C70.3682 28.0719 70.0799 29.944 69.0479 31.792V15.0156H61.752V34.1201H64.7275V32.1758H68.832C68.544 32.6558 68.2078 33.1599 67.7998 33.7119L70.6318 35.8477C73.1037 32.6077 73.7275 29.7758 73.7275 23.4639V18.0879H76.0557V32.3682C76.0557 34.552 77.0163 35.2725 78.6963 35.2725H79.8721C81.696 35.2724 82.6795 34.5277 82.7275 32.5117C82.7516 31.6715 82.8724 28.2179 82.8965 27.9043L80.1836 27.2803C80.1596 28.6961 80.1119 30.6636 80.0879 31.2158C80.0639 31.7917 80.016 31.8877 79.8721 31.8877H79.7041C79.5601 31.8877 79.5117 31.7917 79.5117 31.2637V14.584H70.3682ZM118.368 14.584V23.4639C118.368 28.0719 118.08 29.944 117.048 31.792V15.0156H109.752V34.1201H112.728V32.1758H116.832C116.544 32.6558 116.208 33.1599 115.8 33.7119L118.632 35.8477C121.104 32.6077 121.728 29.7758 121.728 23.4639V18.0879H124.056V32.3682C124.056 34.552 125.016 35.2725 126.696 35.2725H127.872C129.696 35.2724 130.68 34.5277 130.728 32.5117C130.752 31.6715 130.872 28.2179 130.896 27.9043L128.184 27.2803C128.16 28.6961 128.112 30.6636 128.088 31.2158C128.064 31.7917 128.016 31.8877 127.872 31.8877H127.704C127.56 31.8877 127.512 31.7917 127.512 31.2637V14.584H118.368ZM37.8477 27.1836V32.2725H44.4717V27.1836H37.8477ZM85.8477 27.1836V32.2725H92.4717V27.1836H85.8477ZM41.9756 29.1758V30.3516H40.3682V29.1758H41.9756ZM89.9756 29.1758V30.3516H88.3682V29.1758H89.9756ZM66.2637 18.376V28.7676H64.7275V18.376H66.2637ZM114.264 18.376V28.7676H112.728V18.376H114.264ZM38.0156 17.8721V22.7197H44.4717V17.8721H38.0156ZM86.0156 17.8721V22.7197H92.4717V17.8721H86.0156ZM55.8477 19.3604L54.9121 21.208V20.3916H52.2002C52.3441 20.0558 52.4645 19.6962 52.6084 19.3604H55.8477ZM103.848 19.3604L102.912 21.208V20.3916H100.2C100.344 20.0558 100.464 19.6962 100.608 19.3604H103.848ZM42.0479 20.0078V20.7275H40.584V20.0078H42.0479ZM90.0479 20.0078V20.7275H88.584V20.0078H90.0479Z" fill="black"/>
</svg>
