<svg width="2261" height="401" viewBox="0 0 2261 401" fill="none" xmlns="http://www.w3.org/2000/svg">
<path d="M2260.56 41.74V113.98H2203.86V92.56H2071.14V113.98H2016.96V41.74H2104.32C2100.96 31.38 2097.18 21.16 2092.98 11.08L2157.66 2.67999C2159.9 7.71998 2164.66 20.74 2171.94 41.74H2260.56ZM1967.4 294.16L1997.64 271.9L2014.02 329.02C1985.74 348.06 1965.3 362.34 1952.7 371.86L1933.8 386.98L1902.72 342.46C1907.48 338.26 1910.56 334.2 1911.96 330.28C1913.36 326.08 1914.06 320.06 1914.06 312.22V164.8C1905.94 181.32 1899.36 194.48 1894.32 204.28L1863.66 155.14C1875.14 129.38 1884.38 105.44 1891.38 83.32C1898.66 61.2 1905.38 35.58 1911.54 6.46L1963.62 14.02L1953.12 56.02H2007.3V107.68L1990.5 171.1L1967.4 162.7V294.16ZM1948.92 150.94L1964.46 107.26H1937.58C1931.98 123.22 1926.24 137.78 1920.36 150.94H1948.92ZM2237.46 237.88H2088.36V259.72H2246.7V394.96H2192.1V378.58H2088.36V395.38H2033.34V119.44H2237.46V237.88ZM2182.86 191.26V166.9H2088.36V191.26H2182.86ZM2192.1 333.64V305.5H2088.36V333.64H2192.1Z" fill="black"/>
<path d="M1442.82 0.579987V35.44H1598.64V84.58H1442.82V105.16H1567.98V153.88H1259.28V105.16H1384.02V84.58H1227.36V35.44H1384.02V0.579987H1442.82ZM1256.76 172.36H1573.44V300.04H1313.46C1310.38 317.4 1304.64 334.06 1296.24 350.02C1288.12 365.98 1276.08 382.92 1260.12 400.84L1210.14 365.56C1223.58 351.84 1233.52 339.52 1239.96 328.6C1246.68 317.4 1251.16 306.06 1253.4 294.58C1255.64 282.82 1256.76 267.98 1256.76 250.06V172.36ZM1315.98 221.08V252.58H1385.28V221.08H1315.98ZM1442.4 252.58H1513.38V221.08H1442.4V252.58Z" fill="black"/>
<path d="M1194.6 305.08C1192.08 319.08 1189.7 330.98 1187.46 340.78C1185.22 350.3 1182.28 359.54 1178.64 368.5C1173.88 379.98 1168.7 387.68 1163.1 391.6C1157.78 395.8 1151.34 397.9 1143.78 397.9C1135.66 397.9 1127.68 395.38 1119.84 390.34C1112 385.58 1105.84 378.58 1101.36 369.34C1097.16 361.22 1093.24 351.56 1089.6 340.36L1076.58 354.22L1055.16 320.2H1034.58V339.52H1063.98V382.78H927.48V159.34H1051.8V200.08H1034.58V223.18H1060.62V295C1067.62 288 1072.66 282.68 1075.74 279.04C1072.38 256.92 1069.58 227.66 1067.34 191.26L1064.82 144.22H914.88V215.2C914.88 263.64 913.48 300.18 910.68 324.82C907.88 349.18 901.86 373.96 892.62 399.16L847.68 373.96C856.36 352.96 862.24 335.32 865.32 321.04C868.4 306.76 870.22 287.72 870.78 263.92H860.7C859.58 285.2 856.64 304.66 851.88 322.3C847.12 339.66 840.12 356.88 830.88 373.96L790.56 347.92C798.96 331.96 804.84 317.96 808.2 305.92C811.56 293.88 813.52 279.88 814.08 263.92H795.6V216.46H870.78V199.24H810.3V92.98H853.98V150.94H870.78V100.96H1063.14C1063.14 95.08 1063 90.74 1062.72 87.94H1021.14V71.56H958.14V88.78H904.8V71.56H800.64V27.04H904.8V2.67999H958.14V27.04H1021.14V2.67999H1074.06V27.04H1188.3V71.56H1074.06V81.64H1113.12V100.96H1132.02C1128.66 89.2 1126.98 83.32 1126.98 83.32L1166.46 75.76C1169.26 85 1171.5 93.4 1173.18 100.96H1186.2V144.22H1114.38L1115.64 165.64L1119.42 216.88C1128.66 198.96 1136.5 180.76 1142.94 162.28L1185.78 178.24C1176.82 202.04 1167.86 222.9 1158.9 240.82C1149.94 258.74 1139.72 275.82 1128.24 292.06C1129.64 299.34 1131.18 306.48 1132.86 313.48C1137.62 328.88 1141.26 336.58 1143.78 336.58C1145.46 336.58 1146.72 335.32 1147.56 332.8C1148.68 330.28 1149.8 325.66 1150.92 318.94L1155.96 289.12L1194.6 305.08ZM996.36 223.18V200.08H969.9V223.18H996.36ZM969.9 279.46H1019.46V262.24H969.9V279.46ZM969.9 339.52H996.36V320.2H969.9V339.52Z" fill="black"/>
<path d="M500.5 14C516.369 26.881 534.719 40.9728 554.821 55.0137C612.852 95.5465 676.316 129.092 733 140.137V291.801C632.304 280.207 536.135 224.928 468.929 177.986C466.767 176.476 464.624 174.965 462.5 173.457V390H231.261L150 345.534V390H0V92.4658L312.5 263.465V14H500.5Z" fill="black"/>
</svg>
