<svg width="734" height="576" viewBox="0 0 734 576" fill="none" xmlns="http://www.w3.org/2000/svg">
<path d="M733.744 431.496V460.392H711.064V451.824H657.976V460.392H636.304V431.496H671.248C669.904 427.352 668.392 423.264 666.712 419.232L692.584 415.872C693.48 417.888 695.384 423.096 698.296 431.496H733.744ZM616.48 532.464L628.576 523.56L635.128 546.408C623.816 554.024 615.64 559.736 610.6 563.544L603.04 569.592L590.608 551.784C592.512 550.104 593.744 548.48 594.304 546.912C594.864 545.232 595.144 542.824 595.144 539.688V480.72C591.896 487.328 589.264 492.592 587.248 496.512L574.984 476.856C579.576 466.552 583.272 456.976 586.072 448.128C588.984 439.28 591.672 429.032 594.136 417.384L614.968 420.408L610.768 437.208H632.44V457.872L625.72 483.24L616.48 479.88V532.464ZM609.088 475.176L615.304 457.704H604.552C602.312 464.088 600.016 469.912 597.664 475.176H609.088ZM724.504 509.952H664.864V518.688H728.2V572.784H706.36V566.232H664.864V572.952H642.856V462.576H724.504V509.952ZM702.664 491.304V481.56H664.864V491.304H702.664ZM706.36 548.256V537H664.864V548.256H706.36Z" fill="black"/>
<path d="M399.928 415.032V428.976H462.256V448.632H399.928V456.864H449.992V476.352H326.512V456.864H376.408V448.632H313.744V428.976H376.408V415.032H399.928ZM325.504 483.744H452.176V534.816H348.184C346.952 541.76 344.656 548.424 341.296 554.808C338.048 561.192 333.232 567.968 326.848 575.136L306.856 561.024C312.232 555.536 316.208 550.608 318.784 546.24C321.472 541.76 323.264 537.224 324.16 532.632C325.056 527.928 325.504 521.992 325.504 514.824V483.744ZM349.192 503.232V515.832H376.912V503.232H349.192ZM399.76 515.832H428.152V503.232H399.76V515.832Z" fill="black"/>
<path d="M300.64 536.832C299.632 542.432 298.68 547.192 297.784 551.112C296.888 554.92 295.712 558.616 294.256 562.2C292.352 566.792 290.28 569.872 288.04 571.44C285.912 573.12 283.336 573.96 280.312 573.96C277.064 573.96 273.872 572.952 270.736 570.936C267.6 569.032 265.136 566.232 263.344 562.536C261.664 559.288 260.096 555.424 258.64 550.944L253.432 556.488L244.864 542.88H236.632V550.608H248.392V567.912H193.792V478.536H243.52V494.832H236.632V504.072H247.048V532.8C249.848 530 251.864 527.872 253.096 526.416C251.752 517.568 250.632 505.864 249.736 491.304L248.728 472.488H188.752V500.88C188.752 520.256 188.192 534.872 187.072 544.728C185.952 554.472 183.544 564.384 179.848 574.464L161.872 564.384C165.344 555.984 167.696 548.928 168.928 543.216C170.16 537.504 170.888 529.888 171.112 520.368H167.08C166.632 528.88 165.456 536.664 163.552 543.72C161.648 550.664 158.848 557.552 155.152 564.384L139.024 553.968C142.384 547.584 144.736 541.984 146.08 537.168C147.424 532.352 148.208 526.752 148.432 520.368H141.04V501.384H171.112V494.496H146.92V451.992H164.392V475.176H171.112V455.184H248.056C248.056 452.832 248 451.096 247.888 449.976H231.256V443.424H206.056V450.312H184.72V443.424H143.056V425.616H184.72V415.872H206.056V425.616H231.256V415.872H252.424V425.616H298.12V443.424H252.424V447.456H268.048V455.184H275.608C274.264 450.48 273.592 448.128 273.592 448.128L289.384 445.104C290.504 448.8 291.4 452.16 292.072 455.184H297.28V472.488H268.552L269.056 481.056L270.568 501.552C274.264 494.384 277.4 487.104 279.976 479.712L297.112 486.096C293.528 495.616 289.944 503.96 286.36 511.128C282.776 518.296 278.688 525.128 274.096 531.624C274.656 534.536 275.272 537.392 275.944 540.192C277.848 546.352 279.304 549.432 280.312 549.432C280.984 549.432 281.488 548.928 281.824 547.92C282.272 546.912 282.72 545.064 283.168 542.376L285.184 530.448L300.64 536.832ZM221.344 504.072V494.832H210.76V504.072H221.344ZM210.76 526.584H230.584V519.696H210.76V526.584ZM210.76 550.608H221.344V542.88H210.76V550.608Z" fill="black"/>
<path d="M500.5 0C516.369 12.881 534.719 26.9728 554.821 41.0137C612.852 81.5465 676.316 115.092 733 126.137V277.801C632.304 266.207 536.135 210.928 468.929 163.986C466.767 162.476 464.624 160.965 462.5 159.457V376H231.261L150 331.534V376H0V78.4658L312.5 249.465V0H500.5Z" fill="black"/>
</svg>
