<svg width="2262" height="378" viewBox="0 0 2262 378" fill="none" xmlns="http://www.w3.org/2000/svg">
<path d="M2159.65 5.94002C2161.81 1.98 2165.05 0 2169.37 0H2253.61C2256.13 0 2258.11 0.720001 2259.55 2.16C2260.99 3.60001 2261.71 5.58 2261.71 8.09999V369.9C2261.71 372.42 2260.99 374.4 2259.55 375.84C2258.11 377.28 2256.13 378 2253.61 378H2168.29C2165.77 378 2163.79 377.28 2162.35 375.84C2160.91 374.4 2160.19 372.42 2160.19 369.9V150.12C2160.19 148.68 2159.65 147.78 2158.57 147.42C2157.85 147.06 2157.13 147.6 2156.41 149.04L2125.63 200.88L2120.23 210.6H2119.69L2084.05 149.04C2083.33 147.6 2082.43 147.06 2081.35 147.42C2080.63 147.42 2080.27 148.32 2080.27 150.12V369.9C2080.27 372.42 2079.55 374.4 2078.11 375.84C2076.67 377.28 2074.69 378 2072.17 378H1986.85C1984.33 378 1982.35 377.28 1980.91 375.84C1979.47 374.4 1978.75 372.42 1978.75 369.9V8.09999C1978.75 5.58 1979.47 3.60001 1980.91 2.16C1982.35 0.720001 1984.33 0 1986.85 0H2071.09C2075.77 0 2079.01 1.98 2080.81 5.94002L2118.61 75.06C2119.33 76.14 2120.05 76.86 2120.77 77.22C2121.85 77.22 2122.57 76.5 2122.93 75.06L2159.65 5.94002Z" fill="black"/>
<path d="M1837.27 378C1813.85 378 1793.32 373.195 1775.66 363.585C1758.01 353.975 1744.32 340.449 1734.59 323.008C1724.86 305.568 1720 285.458 1720 262.678V8.00846C1720 5.51695 1720.72 3.55933 1722.16 2.1356C1723.6 0.711865 1725.58 0 1728.11 0H1813.49C1816.01 0 1818 0.711865 1819.44 2.1356C1820.88 3.55933 1821.6 5.51695 1821.6 8.00846V272.288C1821.6 278.339 1823.04 283.144 1825.92 286.703C1828.8 290.263 1832.59 292.042 1837.27 292.042C1841.95 292.042 1845.56 290.263 1848.08 286.703C1850.96 283.144 1852.4 278.339 1852.4 272.288V8.00846C1852.4 5.51695 1853.12 3.55933 1854.56 2.1356C1856 0.711865 1857.99 0 1860.51 0H1945.89C1948.42 0 1950.4 0.711865 1951.84 2.1356C1953.28 3.55933 1954 5.51695 1954 8.00846V262.678C1954 285.458 1949.14 305.568 1939.41 323.008C1929.68 340.449 1915.99 353.975 1898.34 363.585C1880.68 373.195 1860.33 378 1837.27 378Z" fill="black"/>
<path d="M1599.85 378C1597.33 378 1595.35 377.28 1593.91 375.84C1592.47 374.4 1591.75 372.42 1591.75 369.9V8.09999C1591.75 5.58 1592.47 3.60001 1593.91 2.16C1595.35 0.720001 1597.33 0 1599.85 0H1685.17C1687.69 0 1689.67 0.720001 1691.11 2.16C1692.55 3.60001 1693.27 5.58 1693.27 8.09999V369.9C1693.27 372.42 1692.55 374.4 1691.11 375.84C1689.67 377.28 1687.69 378 1685.17 378H1599.85Z" fill="black"/>
<path d="M1363.42 378C1360.9 378 1358.92 377.28 1357.48 375.84C1356.04 374.4 1355.32 372.42 1355.32 369.9V296.46C1355.32 293.22 1356.22 289.8 1358.02 286.2L1461.16 90.72C1462.24 88.2 1461.52 86.94 1459 86.94H1363.42C1360.9 86.94 1358.92 86.22 1357.48 84.78C1356.04 83.34 1355.32 81.36 1355.32 78.84V8.09999C1355.32 5.58 1356.04 3.60001 1357.48 2.16C1358.92 0.720001 1360.9 0 1363.42 0H1562.14C1564.66 0 1566.64 0.720001 1568.08 2.16C1569.52 3.60001 1570.24 5.58 1570.24 8.09999V81.54C1570.24 84.78 1569.34 88.2 1567.54 91.8L1463.32 287.28C1462.24 289.8 1462.96 291.06 1465.48 291.06H1562.14C1564.66 291.06 1566.64 291.78 1568.08 293.22C1569.52 294.66 1570.24 296.64 1570.24 299.16V369.9C1570.24 372.42 1569.52 374.4 1568.08 375.84C1566.64 377.28 1564.66 378 1562.14 378H1363.42Z" fill="black"/>
<path d="M1219.27 378C1195.85 378 1175.32 373.195 1157.66 363.585C1140.01 353.975 1126.32 340.449 1116.59 323.008C1106.86 305.568 1102 285.458 1102 262.678V8.00846C1102 5.51695 1102.72 3.55933 1104.16 2.1356C1105.6 0.711865 1107.58 0 1110.11 0H1195.49C1198.01 0 1200 0.711865 1201.44 2.1356C1202.88 3.55933 1203.6 5.51695 1203.6 8.00846V272.288C1203.6 278.339 1205.04 283.144 1207.92 286.703C1210.8 290.263 1214.59 292.042 1219.27 292.042C1223.95 292.042 1227.56 290.263 1230.08 286.703C1232.96 283.144 1234.4 278.339 1234.4 272.288V8.00846C1234.4 5.51695 1235.12 3.55933 1236.56 2.1356C1238 0.711865 1239.99 0 1242.51 0H1327.89C1330.42 0 1332.4 0.711865 1333.84 2.1356C1335.28 3.55933 1336 5.51695 1336 8.00846V262.678C1336 285.458 1331.14 305.568 1321.41 323.008C1311.68 340.449 1297.99 353.975 1280.34 363.585C1262.68 373.195 1242.33 378 1219.27 378Z" fill="black"/>
<path d="M975.24 5.94002C977.4 1.98 980.64 0 984.96 0H1069.2C1071.72 0 1073.7 0.720001 1075.14 2.16C1076.58 3.60001 1077.3 5.58 1077.3 8.09999V369.9C1077.3 372.42 1076.58 374.4 1075.14 375.84C1073.7 377.28 1071.72 378 1069.2 378H983.88C981.36 378 979.38 377.28 977.94 375.84C976.5 374.4 975.78 372.42 975.78 369.9V150.12C975.78 148.68 975.24 147.78 974.16 147.42C973.44 147.06 972.72 147.6 972 149.04L941.22 200.88L935.82 210.6H935.28L899.64 149.04C898.92 147.6 898.02 147.06 896.94 147.42C896.22 147.42 895.86 148.32 895.86 150.12V369.9C895.86 372.42 895.14 374.4 893.7 375.84C892.26 377.28 890.28 378 887.76 378H802.44C799.92 378 797.94 377.28 796.5 375.84C795.06 374.4 794.34 372.42 794.34 369.9V8.09999C794.34 5.58 795.06 3.60001 796.5 2.16C797.94 0.720001 799.92 0 802.44 0H886.68C891.36 0 894.6 1.98 896.4 5.94002L934.2 75.06C934.92 76.14 935.64 76.86 936.36 77.22C937.44 77.22 938.16 76.5 938.52 75.06L975.24 5.94002Z" fill="black"/>
<path d="M500.5 2C516.369 14.881 534.719 28.9728 554.821 43.0137C612.852 83.5465 676.316 117.092 733 128.137V279.801C632.304 268.207 536.135 212.928 468.929 165.986C466.767 164.476 464.624 162.965 462.5 161.457V378H231.261L150 333.534V378H0V80.4658L312.5 251.465V2H500.5Z" fill="black"/>
</svg>
