<svg width="733" height="569" viewBox="0 0 733 569" fill="none" xmlns="http://www.w3.org/2000/svg">
<path d="M692.162 420.176C693.026 418.592 694.322 417.8 696.05 417.8H729.746C730.754 417.8 731.546 418.088 732.122 418.664C732.698 419.24 732.986 420.032 732.986 421.04V565.76C732.986 566.768 732.698 567.56 732.122 568.136C731.546 568.712 730.754 569 729.746 569H695.618C694.61 569 693.818 568.712 693.242 568.136C692.666 567.56 692.378 566.768 692.378 565.76V477.848C692.378 477.272 692.162 476.912 691.73 476.768C691.442 476.624 691.154 476.84 690.866 477.416L678.554 498.152L676.394 502.04H676.178L661.922 477.416C661.634 476.84 661.274 476.624 660.842 476.768C660.554 476.768 660.41 477.128 660.41 477.848V565.76C660.41 566.768 660.122 567.56 659.546 568.136C658.97 568.712 658.178 569 657.17 569H623.042C622.034 569 621.242 568.712 620.666 568.136C620.09 567.56 619.802 566.768 619.802 565.76V421.04C619.802 420.032 620.09 419.24 620.666 418.664C621.242 418.088 622.034 417.8 623.042 417.8H656.738C658.61 417.8 659.906 418.592 660.626 420.176L675.746 447.824C676.034 448.256 676.322 448.544 676.61 448.688C677.042 448.688 677.33 448.4 677.474 447.824L692.162 420.176Z" fill="black"/>
<path d="M563.109 569C553.701 569 545.452 567.081 538.36 563.242C531.269 559.403 525.769 554 521.861 547.032C517.954 540.065 516 532.032 516 522.932V421.199C516 420.204 516.289 419.422 516.868 418.853C517.447 418.284 518.243 418 519.256 418H553.557C554.57 418 555.366 418.284 555.945 418.853C556.523 419.422 556.813 420.204 556.813 421.199V526.771C556.813 529.188 557.392 531.108 558.55 532.53C559.707 533.952 561.227 534.662 563.109 534.662C564.99 534.662 566.437 533.952 567.45 532.53C568.608 531.108 569.187 529.188 569.187 526.771V421.199C569.187 420.204 569.477 419.422 570.055 418.853C570.634 418.284 571.43 418 572.443 418H606.744C607.757 418 608.553 418.284 609.132 418.853C609.711 419.422 610 420.204 610 421.199V522.932C610 532.032 608.046 540.065 604.139 547.032C600.231 554 594.731 559.403 587.64 563.242C580.548 567.081 572.371 569 563.109 569Z" fill="black"/>
<path d="M468.239 569C467.231 569 466.439 568.712 465.863 568.136C465.287 567.56 464.999 566.768 464.999 565.76V421.04C464.999 420.032 465.287 419.24 465.863 418.664C466.439 418.088 467.231 417.8 468.239 417.8H502.367C503.375 417.8 504.167 418.088 504.743 418.664C505.319 419.24 505.607 420.032 505.607 421.04V565.76C505.607 566.768 505.319 567.56 504.743 568.136C504.167 568.712 503.375 569 502.367 569H468.239Z" fill="black"/>
<path d="M373.668 569C372.66 569 371.868 568.712 371.292 568.136C370.716 567.56 370.428 566.768 370.428 565.76V536.384C370.428 535.088 370.788 533.72 371.508 532.28L412.764 454.088C413.196 453.08 412.908 452.576 411.9 452.576H373.668C372.66 452.576 371.868 452.288 371.292 451.712C370.716 451.136 370.428 450.344 370.428 449.336V421.04C370.428 420.032 370.716 419.24 371.292 418.664C371.868 418.088 372.66 417.8 373.668 417.8H453.156C454.164 417.8 454.956 418.088 455.532 418.664C456.108 419.24 456.396 420.032 456.396 421.04V450.416C456.396 451.712 456.036 453.08 455.316 454.52L413.628 532.712C413.196 533.72 413.484 534.224 414.492 534.224H453.156C454.164 534.224 454.956 534.512 455.532 535.088C456.108 535.664 456.396 536.456 456.396 537.464V565.76C456.396 566.768 456.108 567.56 455.532 568.136C454.956 568.712 454.164 569 453.156 569H373.668Z" fill="black"/>
<path d="M316.109 569C306.701 569 298.452 567.081 291.36 563.242C284.269 559.403 278.769 554 274.861 547.032C270.954 540.065 269 532.032 269 522.932V421.199C269 420.204 269.289 419.422 269.868 418.853C270.447 418.284 271.243 418 272.256 418H306.557C307.57 418 308.366 418.284 308.945 418.853C309.523 419.422 309.813 420.204 309.813 421.199V526.771C309.813 529.188 310.392 531.108 311.55 532.53C312.707 533.952 314.227 534.662 316.109 534.662C317.99 534.662 319.437 533.952 320.45 532.53C321.608 531.108 322.187 529.188 322.187 526.771V421.199C322.187 420.204 322.477 419.422 323.055 418.853C323.634 418.284 324.43 418 325.443 418H359.744C360.757 418 361.553 418.284 362.132 418.853C362.711 419.422 363 420.204 363 421.199V522.932C363 532.032 361.046 540.065 357.139 547.032C353.231 554 347.731 559.403 340.64 563.242C333.548 567.081 325.371 569 316.109 569Z" fill="black"/>
<path d="M218.396 420.176C219.26 418.592 220.556 417.8 222.284 417.8H255.98C256.988 417.8 257.78 418.088 258.356 418.664C258.932 419.24 259.22 420.032 259.22 421.04V565.76C259.22 566.768 258.932 567.56 258.356 568.136C257.78 568.712 256.988 569 255.98 569H221.852C220.844 569 220.052 568.712 219.476 568.136C218.9 567.56 218.612 566.768 218.612 565.76V477.848C218.612 477.272 218.396 476.912 217.964 476.768C217.676 476.624 217.388 476.84 217.1 477.416L204.788 498.152L202.628 502.04H202.412L188.156 477.416C187.868 476.84 187.508 476.624 187.076 476.768C186.788 476.768 186.644 477.128 186.644 477.848V565.76C186.644 566.768 186.356 567.56 185.78 568.136C185.204 568.712 184.412 569 183.404 569H149.276C148.268 569 147.476 568.712 146.9 568.136C146.324 567.56 146.036 566.768 146.036 565.76V421.04C146.036 420.032 146.324 419.24 146.9 418.664C147.476 418.088 148.268 417.8 149.276 417.8H182.972C184.844 417.8 186.14 418.592 186.86 420.176L201.98 447.824C202.268 448.256 202.556 448.544 202.844 448.688C203.276 448.688 203.564 448.4 203.708 447.824L218.396 420.176Z" fill="black"/>
<path d="M500.5 0C516.369 12.881 534.719 26.9728 554.821 41.0137C612.852 81.5465 676.316 115.092 733 126.137V277.801C632.304 266.207 536.135 210.928 468.929 163.986C466.767 162.476 464.624 160.965 462.5 159.457V376H231.261L150 331.534V376H0V78.4658L312.5 249.465V0H500.5Z" fill="black"/>
</svg>
