<svg width="50" height="50" viewBox="0 0 50 50" fill="none" xmlns="http://www.w3.org/2000/svg">
<path d="M50 50H0V0H50V50ZM16.0254 15.5195V28.3604C16.0253 30.0401 15.2812 30.6396 14.1533 30.6396C13.1454 30.6396 12.4017 30.2078 11.6338 28.4561L8.10547 30.8564C8.82562 33.4002 11.298 34.8164 14.1299 34.8164C17.9697 34.8163 20.4893 32.7995 20.4893 28.5996V15.5195H16.0254ZM29.1797 15.5195L22.0273 34.4805H26.7549L28.123 30.5684H34.7949L36.1631 34.4805H40.8916L33.7393 15.5195H29.1797ZM31.5312 21.3281L33.3076 26.3916H29.6113L31.3877 21.3281H31.5312Z" fill="white"/>
</svg>
