<svg width="107" height="50" viewBox="0 0 107 50" fill="none" xmlns="http://www.w3.org/2000/svg">
<path d="M107 50H0V0H107V50ZM67.5703 27.0879V29.5117H71.1465L70.4258 32.4404H83.29C83.2886 32.449 83.2643 32.5879 83.2178 32.7041C83.0257 33.0639 82.6655 33.16 81.5137 33.208H75.9697L76.6416 35.6562H82.3779C85.1859 35.6562 86.5298 35.2958 86.8418 32.6318C86.9855 31.386 87.0817 30.2121 87.082 30.208H74.4824L74.6504 29.5117H89.29V27.0879H67.5703ZM15.5215 15.5195V19.6963H23.9941L15.2344 31.0479V34.4805H30.4736V30.3037H21.3057L30.0664 18.9521V15.5195H15.5215ZM33.9834 15.5195V34.4805H38.4473V26.5596H46.0791V34.4805H50.543V15.5195H46.0791V22.3838H38.4473V15.5195H33.9834ZM54.1514 22.624V26.6562H64.3281V22.624H54.1514ZM75.8496 13.624C75.7536 13.9599 75.6098 14.3437 75.4658 14.7275H69.0342V26.4639H87.874V14.7275H79.3779C79.4499 14.4877 79.5458 14.2714 79.5938 14.1035L75.8496 13.624ZM74.1221 17.0801L73.1377 18.1836C73.5696 18.5195 74.1698 18.9037 74.7217 19.3115H72.8262V21.2559H75.5859C74.722 21.7118 73.7142 22.0961 72.3223 22.4561L73.4502 24.1123H72.25V17.0801H74.1221ZM79.8818 22.5283C80.8898 23.0323 81.9217 23.5603 82.9297 24.1123H74.1221C75.3221 23.6803 76.162 23.1996 77.002 22.5996V23.8965H79.8818V22.5283ZM84.6582 17.0801V24.1123H83.458L84.3223 22.5039C83.3863 22.0719 82.4258 21.6639 81.4658 21.2559H84.1299V19.3115H82.0664C82.7142 18.9276 83.2905 18.5439 83.8184 18.208L82.9062 17.0801H84.6582ZM82.0664 17.0801L80.2422 18.3037L81.082 19.3115H79.8818V17.3203H77.002V19.3115H75.7061L76.7139 18.2324C76.2579 17.8724 75.658 17.4401 75.082 17.0801H82.0664Z" fill="white"/>
</svg>
