<svg width="50" height="50" viewBox="0 0 50 50" fill="none" xmlns="http://www.w3.org/2000/svg">
<path d="M50 50H0V0H50V50ZM32.7969 15.1836C27.277 15.1837 23.8213 18.8321 23.8213 25C23.8213 31.1679 27.277 34.8163 32.7969 34.8164C38.3169 34.8164 41.7734 31.168 41.7734 25C41.7734 18.832 38.3169 15.1836 32.7969 15.1836ZM6.8916 15.5195V34.4805H11.3555V28.5283L13.5391 26.248L18.5557 34.4805H24.1475L16.8037 22.8643L23.8594 15.5195H18.3154L11.3555 23.1035V15.5195H6.8916ZM32.7969 19.3604C35.5089 19.3604 37.2129 21.4 37.2129 25C37.2129 28.6 35.5089 30.6396 32.7969 30.6396C30.085 30.6396 28.3809 28.5999 28.3809 25C28.3809 21.4001 30.085 19.3604 32.7969 19.3604Z" fill="black"/>
</svg>
