<svg width="50" height="50" viewBox="0 0 50 50" fill="none" xmlns="http://www.w3.org/2000/svg">
<path d="M50 50H0V0H50V50ZM32.1064 15.1836C28.0266 15.1836 24.8108 17.6078 24.8105 21.0156C24.8105 25.1434 28.674 26.1277 31.29 26.8477C34.146 27.6156 34.8183 28.096 34.8184 29.1279C34.8184 30.1359 33.6906 30.7841 31.8428 30.7842C30.1148 30.7842 28.6504 29.9919 27.6904 28.0479L24.2109 30.376C25.411 32.9919 28.0505 34.8164 31.8184 34.8164C36.2344 34.8164 39.3789 32.4877 39.3789 28.8877C39.3787 24.7361 35.5388 23.7755 32.9229 23.1035C30.0672 22.3356 29.3703 21.9041 29.3701 20.9443C29.3701 19.9363 30.5706 19.2158 32.0586 19.2158C33.6425 19.2159 35.0585 20.0803 35.8984 21.6162L39.2344 19.3838C38.2023 17.1519 35.8263 15.1836 32.1064 15.1836ZM9.68066 15.5195V34.4805H22.8564V30.4482H14.1445V26.8965H22.1123V22.8643H14.1445V19.5518H22.5684V15.5195H9.68066Z" fill="white"/>
</svg>
