<svg width="169" height="50" viewBox="0 0 169 50" fill="none" xmlns="http://www.w3.org/2000/svg">
<path d="M145 0C153.401 0 157.601 7.78632e-06 160.81 1.63477C163.632 3.07287 165.927 5.368 167.365 8.19043C169 11.3991 169 15.5995 169 24V26C169 34.4005 169 38.6009 167.365 41.8096C165.927 44.632 163.632 46.9271 160.81 48.3652C157.601 50 153.401 50 145 50H24C15.5995 50 11.3991 50 8.19043 48.3652C5.368 46.9271 3.07287 44.632 1.63477 41.8096C7.78632e-06 38.6009 0 34.4005 0 26V24C0 15.5995 7.84819e-06 11.3991 1.63477 8.19043C3.07287 5.368 5.368 3.07287 8.19043 1.63477C11.3991 7.80662e-06 15.5995 0 24 0H145ZM86.4463 15.1836C82.3664 15.1836 79.1506 17.6078 79.1504 21.0156C79.1504 25.1434 83.0139 26.1277 85.6299 26.8477C88.4858 27.6156 89.1582 28.096 89.1582 29.1279C89.1582 30.1359 88.0304 30.7841 86.1826 30.7842C84.4546 30.7842 82.9903 29.9919 82.0303 28.0479L78.5508 30.376C79.7508 32.9919 82.3903 34.8164 86.1582 34.8164C90.5742 34.8164 93.7188 32.4877 93.7188 28.8877C93.7186 24.7361 89.8786 23.7755 87.2627 23.1035C84.407 22.3356 83.7101 21.9041 83.71 20.9443C83.71 19.9363 84.9104 19.2158 86.3984 19.2158C87.9824 19.2159 89.3983 20.0803 90.2383 21.6162L93.5742 19.3838C92.5422 17.1519 90.1662 15.1836 86.4463 15.1836ZM120.243 15.1836C116.163 15.1836 112.948 17.6078 112.947 21.0156C112.947 25.1434 116.811 26.1277 119.427 26.8477C122.283 27.6156 122.955 28.096 122.955 29.1279C122.955 30.1359 121.827 30.7841 119.979 30.7842C118.251 30.7842 116.787 29.9919 115.827 28.0479L112.348 30.376C113.548 32.9919 116.187 34.8164 119.955 34.8164C124.371 34.8164 127.516 32.4877 127.516 28.8877C127.515 24.7361 123.676 23.7755 121.06 23.1035C118.204 22.3356 117.507 21.9041 117.507 20.9443C117.507 19.9363 118.707 19.2158 120.195 19.2158C121.779 19.2159 123.195 20.0803 124.035 21.6162L127.371 19.3838C126.339 17.1519 123.963 15.1836 120.243 15.1836ZM41.5439 15.5195V34.4805H45.792V23.5596H45.96L53.8799 34.4805H57.5039V15.5195H53.2314V26.4404H53.0879L45.4082 15.5195H41.5439ZM60.5752 15.5195V34.4805H64.8232V23.5596H64.9912L72.9111 34.4805H76.5352V15.5195H72.2627V26.4404H72.1191L64.4395 15.5195H60.5752ZM93.4688 15.5195L100.692 34.4805H105.253L112.477 15.5195H107.677L103.045 28.4082H102.9L98.2686 15.5195H93.4688Z" fill="black"/>
</svg>
