<svg width="129" height="30" viewBox="0 0 129 30" fill="none" xmlns="http://www.w3.org/2000/svg">
<line x1="0.5" y1="9" x2="0.5" y2="29" stroke="black"/>
<line x1="120" y1="29.5" y2="29.5" stroke="black"/>
<line x1="128" y1="0.5" x2="108" y2="0.5" stroke="black"/>
<line x1="128.5" x2="128.5" y2="20" stroke="black"/>
<path d="M18.9 7.68H22.98V10.32H5.16V7.68H8.84C8.62 7.18 8.4 6.68 8.2 6.16L11.28 5.56C11.64 6.26 11.98 6.98 12.34 7.68H15.48C15.86 6.98 16.26 6.26 16.66 5.56L19.78 6.16C19.58 6.5 19.26 7.08 18.9 7.68ZM19.3 20.96V11.06H22.06V21.74C22.06 23.84 21.46 24.54 19.1 24.54H16.74L16.18 21.78H18.38C19.22 21.78 19.3 21.72 19.3 20.96ZM8.78 24.58H6.02V11.32H14.68V22.06C14.68 23.98 14.04 24.6 12.16 24.6H10.06L9.5 21.96H11.2C11.96 21.96 11.96 21.84 11.96 21.32V20.56H8.78V24.58ZM15.76 11.8H18.32V20.66H15.76V11.8ZM11.96 14.9V13.98H8.78V14.9H11.96ZM8.78 17.26V18.2H11.96V17.26H8.78ZM38.56 18.02V20.86H43.02V23.86H30.68V20.86H35.42V18.02H31.56V15.02H35.42V12.28H31.36L31.74 12.52C31.24 13.38 30.58 14.32 29.8 15.28V24.56H26.94V18.4C26.48 18.84 26.02 19.24 25.54 19.64L24.74 16.5C26.04 15.38 28.26 12.76 29.36 11L31.3 12.24V9.28H35.94L34.66 6.68L37.6 5.66L39.18 8.58L37.16 9.28H42.7V12.28H38.56V15.02H42.34V18.02H38.56ZM29.06 5.76L31.5 7.5C30.3 9.18 28.04 11.64 26.3 13.14L25.14 10.12C26.56 8.98 28.18 7.08 29.06 5.76ZM58.46 24.44V6.28H61.6V24.44H58.46ZM45.62 9.28V6.56H55.62V13.9H49.02L48.82 15.76H55.68C55.66 16.3 55.44 19.9 55.36 21.12C55.22 23.58 54.42 24.3 51.38 24.3H47.94L47.42 21.44H50.5C51.86 21.44 52.22 21.3 52.28 20.26C52.32 19.88 52.42 19.1 52.44 18.5H45.58L46.12 11.18H52.48V9.28H45.62ZM66.42 8.7L67.24 8.72V8.24H65.26V6.58H67.24V6.22H69.68V6.58H71.08V6.22H73.5V6.58H75.42V8.24H73.5V8.78H71.08V8.24H69.68V8.78H68.7C68.68 8.88 68.64 8.96 68.6 9.06H74.6C74.6 9.16 74.6 9.26 74.58 9.38C75.76 8.22 76.12 7.14 76.6 5.96L79.04 6.22C78.94 6.5 78.82 6.76 78.7 7.02H82.94V9.06H82.2C81.84 10.16 81.36 11.16 80.7 12C81.36 12.3 82.14 12.56 83.12 12.72L82.14 14.9C80.84 14.58 79.8 14.12 78.94 13.58C78.1 14.12 77.06 14.56 75.8 14.88L74.64 12.86C75.68 12.64 76.52 12.36 77.2 12.04C76.88 11.66 76.6 11.24 76.34 10.82C76.1 11.12 75.86 11.42 75.6 11.72L74.56 10.02C74.5 10.94 74.46 12.1 74.44 13.1C74.4 14.48 73.78 14.9 72.1 14.9H70.92L70.82 14.34H66.08V12.48L64.74 11.04C65.6 10.4 66.08 9.64 66.42 8.7ZM78.96 10.68C79.34 10.22 79.62 9.68 79.86 9.06H77.92C78.22 9.68 78.54 10.22 78.96 10.68ZM72.34 10.6H67.86C67.76 10.76 67.64 10.92 67.54 11.06H71.44V13.06H71.58C72.2 13.06 72.24 12.94 72.26 12.48C72.28 12.24 72.34 11.54 72.34 10.6ZM68.04 13.06H69.48V12.3H68.04V13.06ZM81.6 19.2H76.02V19.82H82.94V21.88H76.02V22.2C76.02 23.9 75.5 24.54 73.28 24.54H69.96L69.52 22.54H71.94C72.8 22.54 72.92 22.56 72.92 21.94V21.88H65.04V19.82H72.92V19.2H66.36V17.6H72.92V17.06C70.38 17.08 67.96 17.08 66.32 17.04L66.04 15.18C70.6 15.26 77.88 15.18 81.58 15.04L81.78 16.88C80.26 16.94 78.2 17 76.02 17.04V17.6H81.6V19.2ZM100.62 11.98V16.8H90.18V17.74H101.14V24.5H98.22V23.84H90.18V24.6H87.26V11.98H85.36V7.34H92.58L92.2 6.18L95.6 5.9L96.12 7.34H102.64V11.98H100.62ZM99.64 11V9.9H88.4V11H99.64ZM90.18 14.42H97.66V13.38H90.18V14.42ZM98.22 21.36V20.24H90.18V21.36H98.22ZM105.68 24.38V6.62H122.3V21.38C122.3 23.72 121.68 24.42 119.04 24.42H116.38L115.82 21.7H118.1C119.14 21.7 119.4 21.58 119.4 20.7V19.94L117.7 21.02C117.36 20.26 116.94 19.38 116.5 18.44C115.82 19.7 115.08 20.92 114.22 22.18L112.22 20.6C112.6 20.06 112.96 19.52 113.32 18.96L112.2 19.7C112.02 19.32 111.84 18.9 111.62 18.46C111 19.64 110.34 20.74 109.66 21.76L108.6 21.08V24.38H105.68ZM119.4 10.96V9.34H108.6V11.32L110.18 10.3C110.56 10.98 111.04 11.9 111.56 12.88C111.94 11.94 112.3 11 112.62 10.02L114.94 10.64L114.52 11.88L115.62 11.1C115.9 11.6 116.2 12.18 116.54 12.82C116.88 11.96 117.2 11.1 117.48 10.22L119.4 10.96ZM117.92 15.58C118.42 16.6 118.94 17.64 119.4 18.6V11.68C118.96 13.02 118.48 14.32 117.92 15.58ZM108.6 12.32V18.72C109.2 17.74 109.76 16.74 110.3 15.66C109.7 14.46 109.1 13.28 108.6 12.32ZM114.06 17.76C114.46 17.08 114.84 16.4 115.2 15.72C114.76 14.84 114.34 14.02 113.98 13.32C113.66 14.12 113.34 14.9 113 15.66L114.06 17.76Z" fill="black"/>
</svg>
