<svg width="169" height="50" viewBox="0 0 169 50" fill="none" xmlns="http://www.w3.org/2000/svg">
<path d="M145 0C153.401 0 157.601 7.78632e-06 160.81 1.63477C163.632 3.07287 165.927 5.368 167.365 8.19043C169 11.3991 169 15.5995 169 24V26C169 34.4005 169 38.6009 167.365 41.8096C165.927 44.632 163.632 46.9271 160.81 48.3652C157.601 50 153.401 50 145 50H24C15.5995 50 11.3991 50 8.19043 48.3652C5.368 46.9271 3.07287 44.632 1.63477 41.8096C7.78632e-06 38.6009 0 34.4005 0 26V24C0 15.5995 7.84819e-06 11.3991 1.63477 8.19043C3.07287 5.368 5.368 3.07287 8.19043 1.63477C11.3991 7.80662e-06 15.5995 0 24 0H145ZM26.9033 15.5195V27.0879C26.9033 32.0559 29.9275 34.8164 34.7275 34.8164C39.5273 34.8163 42.5508 32.0558 42.5508 27.0879V15.5195H38.0869V26.9199C38.0869 29.4878 36.7913 30.6395 34.7275 30.6396C32.6636 30.6396 31.3673 29.4401 31.3672 26.8242V15.5195H26.9033ZM98.582 19.624C94.238 19.624 91.5254 22.552 91.5254 27.208C91.5254 31.888 94.238 34.8164 98.582 34.8164C102.926 34.8163 105.638 31.8879 105.638 27.208C105.638 22.5521 102.926 19.6241 98.582 19.624ZM53.8135 19.624C51.9657 19.6241 50.646 20.4882 49.8301 21.832H49.71V19.96H45.3896V34.4805H49.71V26.248C49.71 24.6881 50.6217 23.7276 52.0615 23.7275C53.2855 23.7275 54.0059 24.5924 54.0059 25.9844V34.4805H58.3262V24.9756C58.326 21.5438 56.6694 19.624 53.8135 19.624ZM60.9766 15.5195V34.4805H65.2969V30.3037L66.8086 28.6963L70.0488 34.4805H75.4492L69.9531 25.3604L75.0166 19.96H69.9766L65.2969 25.3115V15.5195H60.9766ZM84.9385 19.624C83.0907 19.6241 81.771 20.4882 80.9551 21.832H80.835V19.96H76.5146V34.4805H80.835V26.248C80.835 24.6881 81.7467 23.7276 83.1865 23.7275C84.4105 23.7275 85.1309 24.5924 85.1309 25.9844V34.4805H89.4512V24.9756C89.451 21.5438 87.7944 19.624 84.9385 19.624ZM105.749 19.96L110.237 34.4805H114.653L117.029 25.3359H117.174L119.55 34.4805H123.966L128.453 19.96H123.821L121.686 29.2725H121.541L119.31 19.96H114.894L112.686 29.2725H112.541L110.382 19.96H105.749ZM137.813 19.624C135.966 19.6241 134.646 20.4882 133.83 21.832H133.71V19.96H129.39V34.4805H133.71V26.248C133.71 24.6881 134.622 23.7276 136.062 23.7275C137.286 23.7275 138.006 24.5924 138.006 25.9844V34.4805H142.326V24.9756C142.326 21.5438 140.669 19.624 137.813 19.624ZM98.582 23.7041C100.214 23.7042 101.222 25.0481 101.222 27.208C101.222 29.3679 100.214 30.7362 98.582 30.7363C96.95 30.7363 95.9414 29.368 95.9414 27.208C95.9414 25.048 96.95 23.7041 98.582 23.7041Z" fill="black"/>
</svg>
