<svg width="169" height="50" viewBox="0 0 169 50" fill="none" xmlns="http://www.w3.org/2000/svg">
<path d="M145 0C153.401 0 157.601 7.78632e-06 160.81 1.63477C163.632 3.07287 165.927 5.368 167.365 8.19043C169 11.3991 169 15.5995 169 24V26C169 34.4005 169 38.6009 167.365 41.8096C165.927 44.632 163.632 46.9271 160.81 48.3652C157.601 50 153.401 50 145 50H24C15.5995 50 11.3991 50 8.19043 48.3652C5.368 46.9271 3.07287 44.632 1.63477 41.8096C7.78632e-06 38.6009 0 34.4005 0 26V24C0 15.5995 7.84819e-06 11.3991 1.63477 8.19043C3.07287 5.368 5.368 3.07287 8.19043 1.63477C11.3991 7.80662e-06 15.5995 0 24 0H145ZM50.6611 15.5195V27.0879C50.6611 32.0559 53.6854 34.8164 58.4854 34.8164C63.2851 34.8163 66.3086 32.0558 66.3086 27.0879V15.5195H61.8447V26.9199C61.8447 29.4878 60.5491 30.6395 58.4854 30.6396C56.4214 30.6396 55.1251 29.4401 55.125 26.8242V15.5195H50.6611ZM101.685 15.5195V27.0879C101.685 32.0559 104.709 34.8164 109.509 34.8164C114.309 34.8163 117.332 32.0558 117.332 27.0879V15.5195H112.868V26.9199C112.868 29.4878 111.573 30.6395 109.509 30.6396C107.445 30.6396 106.149 29.4401 106.148 26.8242V15.5195H101.685ZM68.4512 15.5195V19.6963H73.6592V34.4805H78.124V19.6963H83.332V15.5195H68.4512ZM89.1602 15.5195L82.0078 34.4805H86.7354L88.1035 30.5684H94.7754L96.1436 34.4805H100.872L93.7197 15.5195H89.1602ZM91.5117 21.3281L93.2881 26.3916H89.5918L91.3682 21.3281H91.5117Z" fill="black"/>
</svg>
