<svg width="169" height="50" viewBox="0 0 169 50" fill="none" xmlns="http://www.w3.org/2000/svg">
<path d="M145 0C153.401 0 157.601 7.78632e-06 160.81 1.63477C163.632 3.07287 165.927 5.368 167.365 8.19043C169 11.3991 169 15.5995 169 24V26C169 34.4005 169 38.6009 167.365 41.8096C165.927 44.632 163.632 46.9271 160.81 48.3652C157.601 50 153.401 50 145 50H24C15.5995 50 11.3991 50 8.19043 48.3652C5.368 46.9271 3.07287 44.632 1.63477 41.8096C7.78632e-06 38.6009 0 34.4005 0 26V24C0 15.5995 7.84819e-06 11.3991 1.63477 8.19043C3.07287 5.368 5.368 3.07287 8.19043 1.63477C11.3991 7.80662e-06 15.5995 0 24 0H145ZM149.364 19.624C147.852 19.624 146.46 20.3917 145.596 21.6396H145.452V19.96H141.132V39.7598H145.452V32.7998H145.596C146.46 34.0478 147.78 34.8164 149.316 34.8164C152.844 34.8161 155.052 31.8397 155.052 27.0879C155.052 22.5041 152.868 19.6242 149.364 19.624ZM37.8555 19.624C33.5115 19.624 30.7988 22.552 30.7988 27.208C30.7988 31.888 33.5115 34.8164 37.8555 34.8164C42.1993 34.8163 44.9111 31.8879 44.9111 27.208C44.9111 22.5521 42.1993 19.6241 37.8555 19.624ZM53.6074 19.624C49.2875 19.6241 46.4551 22.5524 46.4551 27.2324C46.4552 31.8881 49.2876 34.8164 53.6074 34.8164C56.3193 34.8164 58.5272 33.4002 59.4873 31.1924L56.0557 28.8643C55.4317 30.0881 54.6396 30.7362 53.5117 30.7363C51.8078 30.7363 50.8712 29.3922 50.8711 27.2324C50.8711 25.0724 51.8077 23.7041 53.5117 23.7041C54.6396 23.7042 55.4317 24.3523 56.0557 25.5762L59.4873 23.248C58.5273 21.0401 56.3194 19.624 53.6074 19.624ZM66.7363 19.624C64.1446 19.6242 62.2004 20.6564 60.8564 22.6963L63.7607 24.6885C64.4087 23.7045 65.2487 23.2002 66.3047 23.2002C67.7207 23.2002 68.6084 23.9203 68.6084 25.0723V25.3359H66.8809C62.705 25.3359 60.3049 27.6158 60.3047 30.6396C60.3047 33.3516 62.4412 34.8164 64.8652 34.8164C66.545 34.8163 67.8649 34.1919 68.4648 32.8721H68.6084V34.4805H72.9287V25.168C72.9287 21.856 70.3843 19.624 66.7363 19.624ZM90.2275 15.1836C86.1477 15.1836 82.9319 17.6078 82.9316 21.0156C82.9316 25.1434 86.7951 26.1277 89.4111 26.8477C92.2671 27.6156 92.9394 28.096 92.9395 29.1279C92.9395 30.1359 91.8117 30.7841 89.9639 30.7842C88.2359 30.7842 86.7715 29.9919 85.8115 28.0479L82.332 30.376C83.5321 32.9919 86.1716 34.8164 89.9395 34.8164C94.3555 34.8164 97.5 32.4877 97.5 28.8877C97.4998 24.7361 93.6599 23.7755 91.0439 23.1035C88.1883 22.3356 87.4914 21.9041 87.4912 20.9443C87.4912 19.9363 88.6917 19.2158 90.1797 19.2158C91.7636 19.2159 93.1796 20.0803 94.0195 21.6162L97.3555 19.3838C96.3234 17.1519 93.9474 15.1836 90.2275 15.1836ZM120.666 19.624C118.074 19.6242 116.13 20.6564 114.786 22.6963L117.69 24.6885C118.338 23.7045 119.178 23.2002 120.234 23.2002C121.65 23.2002 122.538 23.9203 122.538 25.0723V25.3359H120.811C116.635 25.3359 114.235 27.6158 114.234 30.6396C114.234 33.3516 116.371 34.8164 118.795 34.8164C120.475 34.8163 121.795 34.1919 122.395 32.8721H122.538V34.4805H126.858V25.168C126.858 21.856 124.314 19.624 120.666 19.624ZM13.1797 15.5195L20.4033 34.4805H24.9639L32.1875 15.5195H27.3877L22.7559 28.4082H22.6113L17.9795 15.5195H13.1797ZM75.5781 15.5195V31C75.5781 33.232 76.9227 34.4805 79.3467 34.4805H81.458V30.4004H80.7383C80.1863 30.4004 79.8984 30.1115 79.8984 29.5596V15.5195H75.5781ZM99.3203 15.5195V34.4805H103.641V26.248C103.641 24.6882 104.552 23.7277 105.992 23.7275C107.216 23.7275 107.937 24.5924 107.937 25.9844V34.4805H112.257V24.9756C112.257 21.5438 110.6 19.624 107.744 19.624C105.896 19.6242 104.577 20.4882 103.761 21.832H103.641V15.5195H99.3203ZM139.252 19.624C136.492 19.6241 134.836 20.7282 133.924 22.5762H133.78V19.96H129.46V34.4805H133.78V27.5439C133.78 25.024 135.22 23.7998 139.156 23.7998H139.396V19.624H139.252ZM68.6084 28.8398V29.6318C68.6084 30.6638 67.6488 31.3115 66.2568 31.3115C65.2008 31.3115 64.7207 30.9756 64.7207 30.3516C64.721 29.3918 65.6813 28.8398 67.793 28.8398H68.6084ZM122.538 28.8398V29.6318C122.538 30.6638 121.579 31.3115 120.187 31.3115C119.131 31.3115 118.65 30.9756 118.65 30.3516C118.651 29.3918 119.611 28.8398 121.723 28.8398H122.538ZM148.044 23.6562C149.628 23.6563 150.636 25.0244 150.636 27.2324C150.636 29.416 149.604 30.784 147.948 30.7842C146.364 30.7842 145.356 29.4162 145.355 27.2324C145.355 25.0244 146.388 23.6562 148.044 23.6562ZM37.8555 23.7041C39.4873 23.7042 40.4951 25.0481 40.4951 27.208C40.4951 29.3679 39.4873 30.7362 37.8555 30.7363C36.2235 30.7363 35.2148 29.368 35.2148 27.208C35.2148 25.048 36.2235 23.7041 37.8555 23.7041Z" fill="black"/>
</svg>
