<svg width="169" height="50" viewBox="0 0 169 50" fill="none" xmlns="http://www.w3.org/2000/svg">
<path d="M145 0C153.401 0 157.601 7.78632e-06 160.81 1.63477C163.632 3.07287 165.927 5.368 167.365 8.19043C169 11.3991 169 15.5995 169 24V26C169 34.4005 169 38.6009 167.365 41.8096C165.927 44.632 163.632 46.9271 160.81 48.3652C157.601 50 153.401 50 145 50H24C15.5995 50 11.3991 50 8.19043 48.3652C5.368 46.9271 3.07287 44.632 1.63477 41.8096C7.78632e-06 38.6009 0 34.4005 0 26V24C0 15.5995 7.84819e-06 11.3991 1.63477 8.19043C3.07287 5.368 5.368 3.07287 8.19043 1.63477C11.3991 7.80662e-06 15.5995 0 24 0H145ZM66.3945 15.1836C60.8746 15.1837 57.4189 18.8321 57.4189 25C57.4189 31.1679 60.8746 34.8163 66.3945 34.8164C71.9145 34.8164 75.3711 31.168 75.3711 25C75.3711 18.832 71.9145 15.1836 66.3945 15.1836ZM86.4902 15.1836C80.8982 15.1836 77.1064 18.88 77.1064 25C77.1064 31.1198 80.826 34.8162 86.3457 34.8164C89.2497 34.8164 91.8425 33.8082 93.8105 31.4082V23.3916H86.25V27.4482H89.6104V29.3438C88.6504 30.3277 87.6177 30.6396 86.3457 30.6396C83.49 30.6394 81.666 28.7678 81.666 25C81.666 21.28 83.5862 19.3604 86.4902 19.3604C88.0022 19.3604 89.3704 20.1763 90.0664 21.4482L93.5938 19.0479C92.3217 16.552 89.9701 15.1836 86.4902 15.1836ZM38.2734 15.5195L45.4971 34.4805H50.0576L57.2812 15.5195H52.4814L47.8496 28.4082H47.7051L43.0732 15.5195H38.2734ZM96.6455 15.5195V34.4805H109.821V30.4482H101.109V26.8965H109.077V22.8643H101.109V19.5518H109.533V15.5195H96.6455ZM112.231 15.5195V34.4805H116.479V23.5596H116.647L124.567 34.4805H128.191V15.5195H123.919V26.4404H123.775L116.096 15.5195H112.231ZM66.3945 19.3604C69.1065 19.3604 70.8105 21.4 70.8105 25C70.8105 28.6 69.1065 30.6396 66.3945 30.6396C63.6826 30.6396 61.9785 28.5999 61.9785 25C61.9785 21.4001 63.6826 19.3604 66.3945 19.3604Z" fill="black"/>
</svg>
